<?xml version="1.0" encoding="iso-8859-1"?>
<!-- Generator: Adobe Illustrator 19.0.0, SVG Export Plug-In . SVG Version: 6.00 Build 0)  -->
<svg version="1.1" id="Capa_1" xmlns="http://www.w3.org/2000/svg" xmlns:xlink="http://www.w3.org/1999/xlink" x="0px" y="0px"
	 viewBox="0 0 512 512" style="enable-background:new 0 0 512 512;" xml:space="preserve">
<polygon style="fill:#4BBAED;" points="339.212,0 172.788,0 123.666,114.245 123.666,397.755 172.788,512 339.212,512 
	388.333,397.755 388.333,114.245 "/>
<polygon style="fill:#0290D1;" points="339.212,0 256,0 256,512 339.212,512 388.333,397.755 388.333,114.245 "/>
<circle style="fill:#6B6B6B;" cx="256" cy="256" r="181.33"/>
<path style="fill:#3A3A3A;" d="M256,74.667c100.148,0,181.333,81.186,181.333,181.333S356.147,437.333,256,437.333"/>
<path style="fill:#FFB012;" d="M256,452.333c-108.259,0-196.333-88.075-196.333-196.334c0-108.258,88.075-196.333,196.333-196.333
	S452.333,147.741,452.333,256S364.259,452.333,256,452.333z M256,89.667c-91.717,0-166.333,74.617-166.333,166.333
	c0,91.717,74.617,166.334,166.333,166.334S422.333,347.717,422.333,256S347.717,89.667,256,89.667z"/>
<g>
	
		<rect x="142.29" y="187.664" transform="matrix(-0.866 -0.5 0.5 -0.866 203.9893 459.9881)" style="fill:#FFFFFF;" width="42.666" height="29.999"/>
	
		<rect x="148.628" y="287.992" transform="matrix(-0.5 -0.866 0.866 -0.5 -22.4376 605.6946)" style="fill:#FFFFFF;" width="29.999" height="42.665"/>
	<rect x="241" y="341.33" style="fill:#FFFFFF;" width="30" height="42.667"/>
</g>
<rect x="327.033" y="294.327" transform="matrix(-0.866 -0.5 0.5 -0.866 495.3911 751.3955)" style="fill:#FFF1AB;" width="42.665" height="29.999"/>
<polygon style="fill:#FFFFFF;" points="263.5,268.99 241,256 241,128 271,128 271,230.019 340.876,189.677 355.876,215.657 "/>
<path style="fill:#FF7300;" d="M256,59.667v30c91.717,0,166.333,74.617,166.333,166.333c0,91.717-74.617,166.334-166.333,166.334v30
	c108.259,0,196.333-88.075,196.333-196.334S364.259,59.667,256,59.667z"/>
<g>
	<polygon style="fill:#FFF1AB;" points="256,128 256,264.66 263.5,268.99 355.876,215.657 340.876,189.677 271,230.019 271,128 	"/>
	<rect x="256" y="341.33" style="fill:#FFF1AB;" width="15" height="42.667"/>
</g>
<g>
</g>
<g>
</g>
<g>
</g>
<g>
</g>
<g>
</g>
<g>
</g>
<g>
</g>
<g>
</g>
<g>
</g>
<g>
</g>
<g>
</g>
<g>
</g>
<g>
</g>
<g>
</g>
<g>
</g>
</svg>
